<?xml version="1.0" encoding="utf-8"?>
<!-- Generator: Adobe Illustrator 19.2.0, SVG Export Plug-In . SVG Version: 6.00 Build 0)  -->
<svg version="1.1" id="Layer_1" xmlns="http://www.w3.org/2000/svg" xmlns:xlink="http://www.w3.org/1999/xlink" x="0px" y="0px"
	 viewBox="0 0 594 354" style="enable-background:new 0 0 594 354;" xml:space="preserve">
<style type="text/css">
	.st0{fill:#F28230;}
	.st1{fill:#4D443E;}
	.st2{fill:#A4CE4C;}
</style>
<g>
	<path class="st0" d="M8.2,210.4c0.1-0.3,0.2-0.6,0.2-0.8c0.3-3.1,0.5-6.2,1-9.3c0.9-5.4,1.9-10.8,3.1-16.1
		c1.3-5.9,3.3-11.6,5.7-17.1c1.7-4,3.5-8.1,5.6-11.9c3.3-6.3,7.1-12.4,11.6-17.9c2.7-3.3,5.4-6.6,8.3-9.7c2.6-2.9,5.4-5.7,8.3-8.3
		c6.1-5.4,12.6-10.2,19.5-14.4c8.9-5.4,18.2-9.6,28.1-12.7c5.6-1.8,11.3-3.1,17.1-4.1c4.4-0.7,8.7-0.6,12.9,0.6
		c5.1,1.5,8.3,5.2,9.4,10.4c0.6,2.7,1,5.6,1,8.4c0.1,73.8,0.1,147.7,0,221.5c0,4.6-1.8,8.7-4.6,12.3c-2.7,3.5-6.2,5.9-10.4,7.3
		c-1.6,0.5-3.2,0.8-4.8,1.1c-0.7,0-1.4,0-2.2,0c-0.4-0.1-0.7-0.2-1.1-0.2c-5.4-1.3-10.8-2.5-16.1-4.1c-4.1-1.2-8.1-2.9-12.1-4.5
		c-6.8-2.7-13.1-6.2-19.3-10.1c-4.6-3-9.1-6.2-13.3-9.7c-4.4-3.7-8.7-7.6-12.6-11.9c-3.9-4.2-7.5-8.6-10.8-13.3
		c-4.7-6.6-8.8-13.5-12.2-20.9c-2.9-6.2-5.4-12.6-7.2-19.2c-1.4-5.1-2.5-10.2-3.4-15.4c-0.7-4.3-1-8.7-1.5-13c0-0.1-0.1-0.2-0.2-0.4
		C8.2,221.5,8.2,216,8.2,210.4z"/>
	<path class="st1" d="M385,349.6c-0.9-0.1-1.8-0.3-2.8-0.4c-5.5-0.8-8.5-4.3-8.5-9.9c0-8.3-0.1-16.6-0.1-24.9
		c0-17.3-0.1-34.6-0.1-51.9c0-4.1-0.1-8.3,0.5-12.3c1.4-10.6,11.2-19,21.9-19c2.6,0,5.3,0,7.9,0.3c5,0.5,7.9,3.3,9,8.2
		c0.1,0.3,0.1,0.5,0.3,1c0.9-0.5,1.8-1,2.6-1.5c3.9-2.2,7.6-4.9,11.8-6.7c8.1-3.5,16.5-4.2,25-0.9c6.8,2.7,11.2,7.9,14.2,14.4
		c2.6,5.5,3.7,11.3,4.5,17.2c1.2,9.6,0.7,19.1-1.9,28.4c-1.9,7-4.9,13.4-10.3,18.5c-5.1,4.8-11.1,7.4-18,8.2c-8.7,1-17-0.1-25-3.7
		c-0.5-0.2-1-0.4-1.6-0.6c0,3.1,0,6.1,0,9.1c0,3.5,0.3,7-0.8,10.5c-2.7,8.8-8.2,14.5-17.6,16.1c-0.1,0-0.3,0.1-0.4,0.2
		C392.1,349.6,388.6,349.6,385,349.6z M436.5,261.9c-3.1,0.9-5.8,1.6-8.6,2.5c-1.5,0.5-2.7,1.5-3.3,3c-0.6,1.7-1.3,3.4-1.4,5.1
		c-0.1,3.9,0.1,7.7,0.3,11.6c0.1,1.5,0.3,3,0.5,4.5c2.5-0.7,4.8-1.4,7.1-2c3-0.7,4.9-2.5,5.4-5.4c0.5-2.7,0.8-5.5,0.7-8.2
		C437.3,269.4,436.8,265.7,436.5,261.9z"/>
	<path class="st1" d="M178.4,349.6c-0.8-0.1-1.7-0.3-2.5-0.4c-5.6-0.8-8.6-4.3-8.6-9.9c-0.1-23.7-0.1-47.5-0.2-71.2
		c0-5.5-0.1-11,0.2-16.4c0.6-10.1,9.2-19.2,19.3-20.3c3.8-0.4,7.7-0.3,11.5,0.1c4.7,0.5,7.4,3.6,8.3,8.2c0,0.2,0.1,0.4,0.1,0.6
		c0,0,0.1,0.1,0.2,0.2c0.8-0.5,1.7-0.9,2.5-1.4c4.1-2.3,7.9-5,12.2-6.8c6.8-3,14.1-3.6,21.3-1.7c9.1,2.4,14.6,8.7,18.1,17.1
		c2.4,5.8,3.5,11.9,4,18c0.9,10.1,0,20-3.3,29.7c-2.9,8.4-7.8,15.2-15.8,19.4c-6.2,3.3-12.8,4.2-19.7,3.8
		c-5.7-0.4-11.3-1.5-16.6-3.9c-0.5-0.2-1-0.4-1.7-0.7c0,0.5,0,0.8,0,1.1c0,4.2,0.2,8.5,0,12.7c-0.3,8.6-3.9,15.4-11.6,19.6
		c-2.2,1.2-4.9,1.6-7.3,2.4C185.4,349.6,181.9,349.6,178.4,349.6z M230.2,261.8c-3.3,0.9-6.1,1.6-8.9,2.6c-1,0.4-2,1.3-2.7,2.2
		c-1.4,1.9-2,4.3-2,6.6c-0.1,3.4,0.2,6.8,0.4,10.2c0.1,1.7,0.4,3.3,0.6,5.1c2.7-0.7,5.2-1.5,7.7-2.1c2.1-0.6,3.7-1.9,4.3-3.9
		c0.6-1.9,1.2-3.9,1.2-5.8C230.9,271.9,230.5,267,230.2,261.8z"/>
	<path class="st1" d="M586.9,185.3c-1,9-5.8,15.3-14,18.9c-4.1,1.8-8.6,1.9-13,1.7c-1.9-0.1-3.9-0.2-5.8-0.6
		c-5.6-1.1-8.6-4.4-9.4-10.2c-0.3-2.4-0.5-4.9-0.5-7.4c-0.1-11,0-21.9-0.1-32.9c0-1-0.1-2.1-0.3-3.1c-0.5-2.5-1.7-3.6-4.2-3.7
		c-2.2-0.1-4.4,0-6.7,0c0,0.7,0,1.2,0,1.7c0,11.5,0.1,23-0.1,34.6c-0.1,10.7-9.2,20.3-19.7,21.4c-4.6,0.5-9.2,0.3-13.7-0.5
		c-5.6-1-8-3.5-8.7-9.2c-0.4-3-0.6-6.1-0.6-9.2c0-24.7,0-49.3,0-74c0-12.9,9.7-22.8,22.6-23c2.9,0,5.8,0,8.6,0.2
		c6.5,0.5,9.8,3.5,10.4,10.1c0.7,7.8,1,15.7,1.5,23.5c0.1,1.9,0.2,3.9,0.3,6c1.6-1.3,3.1-2.6,4.6-3.8c5.8-4.6,12.3-7.9,19.7-9
		c4.8-0.7,9.6-0.8,14.2,0.7c8.3,2.6,12.8,8.4,14.4,16.7c0.3,1.5,0.3,3,0.5,4.5c0,3.4,0,6.9,0,10.3c0,4.4,0,8.7,0,13.1
		c0,0.2,0.1,0.4,0.2,0.6c0,2.5,0,5,0,7.4c-0.1,0.2-0.2,0.4-0.2,0.6C586.9,175.6,586.9,180.4,586.9,185.3z"/>
	<path class="st2" d="M84.1,5.2c2.3,0.3,4.7,0.5,7,0.9c11.4,1.9,21.6,6.6,30.6,13.9c7.9,6.5,14,14.4,18.3,23.7
		c0.2,0.4,0.3,0.7,0.6,1.1c1.3-1.1,2.5-2.2,3.8-3.2c9-7.1,19.1-11.4,30.5-12.6c3.9-0.4,7.8-0.2,11.7-0.2c0.9,0,1.4,0.3,1.4,1.4
		c0.1,21.3-15.2,39.6-36.1,43.5c-5.5,1-11,0.8-16.5,0.6c-21.6-0.6-40.6-8.3-56.7-22.7C66.2,40.9,57.8,27.5,53,11.7
		c-0.1-0.2-0.1-0.4-0.2-0.7c1.8-0.7,3.6-1.5,5.4-2.1C63.7,7,69.3,5.8,75,5.4c0.3,0,0.6-0.1,0.9-0.2C78.6,5.2,81.4,5.2,84.1,5.2z"/>
	<path class="st1" d="M316,284.3c0.4,5.8,4,9.6,10.1,9.5c9.3-0.2,19.7,6.8,22.2,18.3c0.4,1.6,0.5,3.3,0.7,5.2
		c-3.1,0.8-6.1,1.5-9.1,2.2c-7.7,1.7-15.6,2.2-23.5,1.4c-10.9-1.1-21-4.6-30-10.9c-7.4-5.2-11.5-12.5-13.1-21.3
		c-2.1-11.1-1.5-22.1,2.5-32.7c4.8-12.5,14.2-20.1,26.9-24c8.2-2.5,16.6-3,25-2.5c5.4,0.3,10.8,1.2,15.9,3.1
		c10.8,4.1,17.5,12.1,21.3,22.7c2.3,6.3,2.8,12.9,2.2,19.5c-0.4,4.8-3.6,8.1-8.9,9c-1.7,0.3-3.4,0.4-5.1,0.5c-12,0-24,0-36,0
		C316.8,284.3,316.4,284.3,316,284.3z M315.7,264.1c0.3,0.1,0.6,0.2,0.8,0.2c4.9,0.8,9.8,1,14.7,0.4c1.5-0.2,2.9-0.5,4.3-0.9
		c1.5-0.5,1.7-1,1.5-2.6c-0.3-1.6-0.9-3-2-4.1c-1.8-1.9-4-2.8-6.5-3.2C321,253.1,315.6,258.6,315.7,264.1z"/>
	<path class="st1" d="M346.9,171.3c0.3,6.5,4.8,9.6,9.8,9.5c9-0.2,19.2,6.2,22.2,17.2c0.5,2,0.7,4.1,1.1,6.4c-4.5,1-8.8,2-13.1,2.8
		c-9.1,1.6-18.2,1.5-27.3-0.5c-8.6-2-16.7-5.2-23.7-10.7c-6.1-4.8-9.8-11.2-11.4-18.8c-2.7-12.8-2-25.3,3.6-37.2
		c4.7-9.9,12.6-16.2,22.7-19.9c8.7-3.2,17.8-3.9,27-3.5c5.4,0.3,10.7,1,15.7,2.8c11,3.9,18.1,11.8,22.1,22.6
		c2.4,6.3,2.9,12.9,2.4,19.6c-0.4,5.2-3.5,8.4-8.7,9.3c-2,0.3-4,0.5-6,0.5c-11.8,0-23.5,0-35.3,0
		C347.8,171.3,347.3,171.3,346.9,171.3z M346.7,151.2c0.2,0.1,0.5,0.2,0.8,0.2c4.9,0.8,9.8,1,14.8,0.4c1.6-0.2,3.1-0.6,4.6-1.2
		c0.5-0.2,1.1-1.1,1.1-1.6c0-1.9-0.8-3.6-2.1-4.9c-3-3.1-8.1-4.1-12.4-2.4C349.2,143.4,346.4,147.2,346.7,151.2z"/>
	<path class="st1" d="M444.3,178.5c-6-1.7-11.8-3.4-17.7-5c-3.9-1.1-7.7-2.5-11.3-4.6c-5.2-3.1-8.7-7.5-10-13.4
		c-1.6-6.8-1.5-13.6,1.2-20.1c3.4-8.6,9.9-13.9,18.6-16.6c5.1-1.6,10.3-2.4,15.7-2.4c11.3-0.1,22.3,1.6,33,5.5
		c0.4,0.1,0.8,0.3,1.3,0.5c-0.4,3.6-1.6,7-3.7,9.9c-5,7.1-12,10.5-20.7,10c-1.5-0.1-2.9-0.6-4.4-0.7c-0.9-0.1-2,0-2.9,0.3
		c-1,0.3-2,1-3.3,1.6c3.2,1.2,6.1,2.5,9.2,3.3c4.7,1.3,9.5,2.2,14.2,3.4c4.5,1.2,8.8,3.1,12.4,6.3c3.9,3.5,5.7,8,6.4,13
		c0.9,6.5,0.7,12.8-1.9,19c-3.8,9.2-10.7,14.6-20.3,16.9c-14.7,3.5-29.3,2.6-43.6-2c-3-1-6.1-1.7-8.6-3.8c-3.1-2.5-2.8-1.5-1.8-5.3
		c1.9-8,8.6-13.7,16.7-14.9c2.9-0.4,5.6-0.1,8.4,0.9c3.4,1.2,6.9,1.8,10.6,1.6c2.2-0.2,2.2-0.2,2.5-2.3
		C444.2,179.3,444.3,179,444.3,178.5z"/>
	<path class="st1" d="M167.1,151.6c0-13.2,0-26.4,0-39.6c0-4.6,0.7-9,3-13c3.1-5.4,8.2-8.2,14.1-9.5c4-0.9,8.2-1.3,12.3-1.7
		c5-0.5,10.1-0.7,15.1,0c2.2,0.3,4.5,0.8,6.6,1.6c2.8,1,4.7,3.2,5,6.2c0.4,3.3,0.5,6.7,0.2,10c-0.3,4-2.4,5.6-6.4,5.9
		c-1.8,0.1-3.7,0.1-5.5,0.3c-2.2,0.1-3.3,2-2.4,4c0.1,0.3,0.5,0.4,0.8,0.6c2,0.9,3.9,1.7,5.9,2.6c3,1.4,4.5,3.7,4.5,7
		c0,2.6,0.1,5.3,0,7.9c-0.2,4.4-2.3,7.5-6.4,9.1c-1,0.4-2.1,0.8-3.2,1.1c-0.8,0.2-0.9,0.5-0.9,1.2c0,3.5,0,7,0,10.6
		c0,9.2,0,18.3,0,27.5c0,10.5-7.5,19.9-17.8,21.9c-5.1,1-10.3,1-15.4,0.1c-5.6-1-8.6-4.5-8.9-10.1c-0.3-4.9-0.4-9.7-0.5-14.6
		c-0.1-9.7,0-19.3,0-29C167.3,151.6,167.2,151.6,167.1,151.6z"/>
	<path class="st1" d="M270.2,131.2c1.9-1.9,3.8-3.6,5.6-5.4c2.8-2.7,5.7-5.4,9.3-7c1.4-0.6,2.9-1.2,4.4-1.4c4.5-0.6,7.9,1.7,8.7,6.4
		c1.1,6.8,1.3,13.7,0.2,20.5c-0.9,5.3-4.7,7.8-9.6,8.7c-2.9,0.5-6,0.8-8.9,0.8c-3,0-5.8,0.6-8.7,1.4c0,0.4,0,0.9,0,1.3
		c0,9-0.2,18,0,27c0.2,9-6.5,19.7-18.2,21.9c-5.4,1-10.8,0.7-16.2-0.4c-4.9-1-7.2-3.7-7.8-9.1c-0.3-2.8-0.5-5.6-0.5-8.4
		c-0.1-11.8-0.1-23.6-0.1-35.4c0-4.3,0-8.6,0.1-13c0.4-10.7,9.3-20.2,20-21.1c3.7-0.3,7.4,0,11.1,0.2c3.2,0.2,5.7,1.9,7.1,4.8
		c1.1,2.2,2,4.6,3,6.9C269.9,130.4,270.1,130.7,270.2,131.2z"/>
</g>
</svg>
